<?xml version="1.0" encoding="UTF-8" standalone="no"?>
<!-- Created with Inkscape (http://www.inkscape.org/) -->

<svg
   width="73.760002mm"
   height="14.999853mm"
   viewBox="0 0 73.760003 14.999853"
   version="1.1"
   id="svg393"
   inkscape:version="1.2.2 (732a01da63, 2022-12-09)"
   sodipodi:docname="fosanalysis_logo.svg"
   xml:space="preserve"
   inkscape:export-filename="fosanalysis_logo.png"
   inkscape:export-xdpi="1269.22"
   inkscape:export-ydpi="1269.22"
   xmlns:inkscape="http://www.inkscape.org/namespaces/inkscape"
   xmlns:sodipodi="http://sodipodi.sourceforge.net/DTD/sodipodi-0.dtd"
   xmlns="http://www.w3.org/2000/svg"
   xmlns:svg="http://www.w3.org/2000/svg"><sodipodi:namedview
     id="namedview395"
     pagecolor="#ffffff"
     bordercolor="#666666"
     borderopacity="1.0"
     inkscape:showpageshadow="2"
     inkscape:pageopacity="0.0"
     inkscape:pagecheckerboard="0"
     inkscape:deskcolor="#d1d1d1"
     inkscape:document-units="mm"
     showgrid="false"
     showguides="true"
     inkscape:zoom="4.1753659"
     inkscape:cx="139.38898"
     inkscape:cy="28.260996"
     inkscape:window-width="1920"
     inkscape:window-height="1017"
     inkscape:window-x="1912"
     inkscape:window-y="-8"
     inkscape:window-maximized="1"
     inkscape:current-layer="layer1"><inkscape:grid
       type="xygrid"
       id="grid17620"
       originx="-54.274861"
       originy="-98.174754" /></sodipodi:namedview><defs
     id="defs390" /><g
     inkscape:label="Logo"
     inkscape:groupmode="layer"
     id="layer1"
     transform="translate(-54.274862,-98.174758)"><path
       style="fill:#3ea639;fill-opacity:1;fill-rule:nonzero;stroke:#1e541e;stroke-width:0.255553;stroke-linecap:round;stroke-linejoin:round;stroke-miterlimit:4;stroke-dasharray:none;stroke-opacity:1"
       d="m 65.815242,105.84637 c 0.539355,-0.20051 0.820918,-0.58608 0.820918,-1.25003 0,-0.66391 -0.559482,-1.24899 -1.258564,-1.25014 -0.737708,-10e-4 -1.294213,0.58382 -1.285321,1.25014 0.0086,0.66636 0.326682,1.10971 0.835327,1.26998 l -0.901027,2.21665 c -1.205949,-0.3121 -2.432468,-1.73482 -2.432468,-3.48663 0,-2.07482 1.667174,-3.75683 3.756735,-3.75683 2.089565,0 3.783492,1.68201 3.783492,3.75683 0,1.77903 -1.214876,3.18183 -2.446557,3.49286 z"
       id="path3068"
       inkscape:connector-curvature="0"
       sodipodi:nodetypes="czssccssscc"
       inkscape:export-filename="path3068.png"
       inkscape:export-xdpi="300"
       inkscape:export-ydpi="300" /><path
       id="path893"
       style="fill:none;stroke:#fbc708;stroke-width:0.634883;stroke-linecap:round;stroke-linejoin:round;stroke-dasharray:none;stroke-opacity:1;paint-order:markers fill stroke"
       d="m 121.4158,108.63719 -64.713489,-3e-5 c -1.165325,0 -2.110008,0.9447 -2.110008,2.11002 0,1.16533 0.944683,2.10999 2.110008,2.10999 1.165329,0 2.110015,-0.94466 2.110015,-2.10999 v -2.67127"
       sodipodi:nodetypes="cssccc" /><path
       id="path9251-1"
       style="fill:#8e8e8e;fill-opacity:1;stroke:none;stroke-width:0.952325px;stroke-linecap:butt;stroke-linejoin:miter;stroke-opacity:1"
       d="m 60.215738,98.174758 c -1.055131,0.0072 -2.173299,0.496917 -2.250616,2.397542 v 6.23105 l 0.407347,0.70491 v 0.56733 h 0.879782 v -0.56733 l 0.407346,-0.70491 v -6.23105 c 0,-1.173249 0.377778,-1.276887 1.021143,-0.81838 l 0.529495,0.37737 c 0.29,0.20663 0.516306,0.32146 0.720314,0.32146 0.520665,0 0.943379,-0.41333 0.943023,-0.92443 -2.81e-4,-0.400154 -0.188774,-0.654804 -0.499009,-0.81406 -0.310231,-0.159471 -0.565198,-0.237947 -0.832818,-0.318222 -0.365694,-0.109794 -0.773501,-0.223548 -1.32619,-0.219589 z"
       sodipodi:nodetypes="ccccccccssssszscc" /><path
       style="fill:#3ea639;fill-opacity:1;stroke:none;stroke-width:0.952325px;stroke-linecap:butt;stroke-linejoin:miter;stroke-opacity:1"
       d="m 57.846811,105.56678 v -2.98345 h -0.326286 v 2.3717 h -0.849039 v -0.29771 l 0.150472,-0.0893 v -2.92661 l 0.92637,-0.44742 0.09849,-0.0475 h 3.555233 l 0.0076,1.43694 H 59.76827 l -0.0076,2.98352 z"
       id="path9055"
       sodipodi:nodetypes="ccccccccccccccc" /><g
       aria-label="analysi"
       id="text14742"
       style="font-weight:bold;font-size:3.88056px;line-height:1.25;font-family:'Open Sans';-inkscape-font-specification:'Open Sans, Bold';fill:#00305d;stroke-width:0.264583"
       transform="matrix(3.5993418,0,0,3.5993418,-236.94264,-274.68463)"><path
         d="m 88.374953,106.34182 -0.101631,-0.26183 h -0.01378 q -0.132636,0.16709 -0.273885,0.23255 -0.139527,0.0637 -0.365181,0.0637 -0.27733,0 -0.437527,-0.15847 -0.158475,-0.15848 -0.158475,-0.45131 0,-0.30662 0.213596,-0.45131 0.215319,-0.14642 0.647679,-0.16192 l 0.334174,-0.0103 v -0.0844 q 0,-0.29283 -0.299723,-0.29283 -0.230822,0 -0.542603,0.13952 l -0.173978,-0.35484 q 0.332452,-0.17398 0.737251,-0.17398 0.387574,0 0.59428,0.16881 0.206706,0.16881 0.206706,0.51332 v 1.2833 z m -0.15503,-0.89228 -0.203261,0.007 q -0.229099,0.007 -0.341064,0.0827 -0.111966,0.0758 -0.111966,0.23082 0,0.22221 0.254937,0.22221 0.182591,0 0.291111,-0.10507 0.110243,-0.10508 0.110243,-0.27906 z"
         style="font-size:3.52778px"
         id="path460" /><path
         d="M 91.060406,106.34182 H 90.535029 V 105.217 q 0,-0.20843 -0.07407,-0.31179 -0.07407,-0.10507 -0.235989,-0.10507 -0.220486,0 -0.318671,0.14814 -0.09819,0.14641 -0.09819,0.48748 v 0.90606 h -0.525377 v -1.92581 h 0.401354 l 0.07062,0.24632 h 0.02928 q 0.08785,-0.13952 0.241156,-0.21015 0.15503,-0.0723 0.3514,-0.0723 0.335897,0 0.509875,0.18259 0.173977,0.18086 0.173977,0.52365 z"
         style="font-size:3.52778px"
         id="path462" /><path
         d="m 92.824296,106.34182 -0.10163,-0.26183 h -0.01378 q -0.132637,0.16709 -0.273886,0.23255 -0.139526,0.0637 -0.36518,0.0637 -0.27733,0 -0.437527,-0.15847 -0.158475,-0.15848 -0.158475,-0.45131 0,-0.30662 0.213596,-0.45131 0.215319,-0.14642 0.647678,-0.16192 l 0.334175,-0.0103 v -0.0844 q 0,-0.29283 -0.299724,-0.29283 -0.230821,0 -0.542602,0.13952 l -0.173978,-0.35484 q 0.332452,-0.17398 0.737251,-0.17398 0.387574,0 0.594279,0.16881 0.206706,0.16881 0.206706,0.51332 v 1.2833 z m -0.155029,-0.89228 -0.203261,0.007 q -0.229099,0.007 -0.341065,0.0827 -0.111965,0.0758 -0.111965,0.23082 0,0.22221 0.254937,0.22221 0.18259,0 0.291111,-0.10507 0.110243,-0.10508 0.110243,-0.27906 z"
         style="font-size:3.52778px"
         id="path464" /><path
         d="m 94.257457,106.34182 h -0.525378 v -2.68029 h 0.525378 z"
         style="font-size:3.52778px"
         id="path466" /><path
         d="m 94.533065,104.41601 h 0.575331 l 0.363458,1.08348 q 0.04651,0.14125 0.06373,0.33418 h 0.01034 q 0.01895,-0.17742 0.07407,-0.33418 l 0.356568,-1.08348 h 0.563273 l -0.814765,2.17213 q -0.111966,0.30145 -0.320394,0.45131 -0.206706,0.14986 -0.484037,0.14986 -0.136081,0 -0.266995,-0.0293 v -0.41686 q 0.09474,0.0224 0.206706,0.0224 0.139527,0 0.24288,-0.0861 0.105075,-0.0844 0.163642,-0.25666 l 0.03101,-0.0947 z"
         style="font-size:3.52778px"
         id="path468" /><path
         d="m 98.15903,105.76993 q 0,0.29628 -0.206706,0.45131 -0.204983,0.15503 -0.61495,0.15503 -0.210151,0 -0.35829,-0.0293 -0.148139,-0.0276 -0.27733,-0.0827 v -0.43409 q 0.146416,0.0689 0.329006,0.11541 0.184313,0.0465 0.32384,0.0465 0.285943,0 0.285943,-0.16536 0,-0.062 -0.0379,-0.0999 -0.0379,-0.0396 -0.130914,-0.0879 -0.09302,-0.0499 -0.248047,-0.11541 -0.222209,-0.093 -0.327284,-0.17226 -0.103353,-0.0792 -0.151585,-0.18086 -0.04651,-0.10336 -0.04651,-0.25322 0,-0.25666 0.198093,-0.39618 0.199815,-0.14125 0.564996,-0.14125 0.347955,0 0.676961,0.15158 l -0.158474,0.37896 q -0.144694,-0.062 -0.27044,-0.10163 -0.125746,-0.0396 -0.25666,-0.0396 -0.232544,0 -0.232544,0.12575 0,0.0706 0.07407,0.1223 0.07579,0.0517 0.329007,0.15331 0.225654,0.0913 0.33073,0.17053 0.105075,0.0792 0.155029,0.18259 0.04995,0.10335 0.04995,0.24632 z"
         style="font-size:3.52778px"
         id="path470" /><path
         d="m 98.546603,103.91819 q 0,-0.25666 0.285943,-0.25666 0.285943,0 0.285943,0.25666 0,0.1223 -0.07235,0.19121 -0.07062,0.0672 -0.213596,0.0672 -0.285943,0 -0.285943,-0.25839 z m 0.547771,2.42363 h -0.525378 v -1.92581 h 0.525378 z"
         style="font-size:3.52778px"
         id="path472" /></g><g
       id="g528"
       transform="matrix(3.5993418,0,0,3.5993418,-236.94264,-274.68463)"><path
         style="fill:#00305d;fill-opacity:1;stroke:#fbc708;stroke-width:0.0705556;stroke-linecap:butt;stroke-linejoin:miter;stroke-dasharray:none;stroke-opacity:1"
         d="m 99.420048,104.98002 c 0,-0.67925 0.858142,-0.705 1.205362,-0.50265 0.98872,0.0459 0.24341,1.13525 -0.17401,0.39518 -0.44847,-0.16726 -0.52986,-0.0466 -0.52986,0.062 0,0.28357 1.00417,0.18837 0.98371,0.88594 -0.0199,0.67695 -1.195322,0.7554 -1.442251,0.72791 l -0.454797,-0.0506 c 0,0 0.125623,-0.015 0.454797,-0.068 0.329179,-0.053 0.882671,-0.11136 0.882671,-0.6093 0,-0.39506 -0.925622,-0.16121 -0.925622,-0.84047 z"
         id="path17551"
         sodipodi:nodetypes="zccsssczszz" /><circle
         style="fill:#00305d;fill-opacity:1;stroke:#fbc708;stroke-width:0.0705556;stroke-linecap:round;stroke-linejoin:round;stroke-dasharray:none;stroke-opacity:1;paint-order:markers fill stroke"
         id="path17605"
         cx="100.87754"
         cy="104.51558"
         r="0.12298991" /><circle
         style="fill:#00305d;fill-opacity:1;stroke:#fbc708;stroke-width:0.0705556;stroke-linecap:round;stroke-linejoin:round;stroke-dasharray:none;stroke-opacity:1;paint-order:markers fill stroke"
         id="circle17607"
         cx="100.70567"
         cy="104.57966"
         r="0.12298991" /><path
         style="fill:#ff0000;fill-opacity:1;stroke:none;stroke-width:0.452703px;stroke-linecap:butt;stroke-linejoin:miter;stroke-opacity:1"
         d="m 101.0752,105.19886 c 0.0318,0.0455 0.0395,0.0904 0.0732,0.26117 0.0571,-0.14389 0.0301,-0.23461 -0.002,-0.26441 0.0331,0.0302 0.11676,0.0411 0.25478,-0.0116 -0.17303,-0.0188 -0.2109,-0.0307 -0.25797,-0.0583 -0.0385,-0.0226 -0.0753,-0.0655 -0.17661,-0.15788 -0.0491,0.002 -0.069,0.0224 -0.0669,0.0678 0.10332,0.0925 0.15025,0.12634 0.176,0.16316 z"
         id="path17609"
         sodipodi:nodetypes="scccsccs" /></g><g
       aria-label="s"
       id="text19122"
       style="font-weight:bold;font-size:3.88056px;line-height:1.25;font-family:'Open Sans';-inkscape-font-specification:'Open Sans, Bold';fill:#3ea639;stroke:#1e541e;stroke-width:0.071"
       transform="matrix(3.5993418,0,0,3.5993418,-236.94264,-274.68463)"><path
         d="m 86.729624,105.76994 q 0,0.29628 -0.206706,0.45131 -0.204983,0.15503 -0.61495,0.15503 -0.210151,0 -0.35829,-0.0293 -0.148139,-0.0276 -0.277331,-0.0827 v -0.43408 q 0.146417,0.0689 0.329007,0.11541 0.184313,0.0465 0.323839,0.0465 0.285944,0 0.285944,-0.16536 0,-0.062 -0.0379,-0.0999 -0.0379,-0.0396 -0.130914,-0.0878 -0.09302,-0.05 -0.248047,-0.11541 -0.222209,-0.093 -0.327285,-0.17226 -0.103352,-0.0792 -0.151584,-0.18087 -0.04651,-0.10335 -0.04651,-0.25321 0,-0.25666 0.198093,-0.39619 0.199816,-0.14125 0.564996,-0.14125 0.347955,0 0.676962,0.15159 l -0.158474,0.37896 q -0.144694,-0.062 -0.27044,-0.10163 -0.125747,-0.0396 -0.25666,-0.0396 -0.232544,0 -0.232544,0.12575 0,0.0706 0.07407,0.1223 0.07579,0.0517 0.329007,0.1533 0.225654,0.0913 0.330729,0.17054 0.105076,0.0792 0.15503,0.18259 0.04995,0.10335 0.04995,0.24632 z"
         style="font-size:3.52778px"
         id="path410" /></g><ellipse
       style="fill:#ffffff;fill-opacity:1;stroke:none;stroke-width:0.605934;stroke-linecap:round;stroke-linejoin:round;stroke-dasharray:none;stroke-opacity:1;paint-order:markers fill stroke"
       id="ellipse20422"
       cx="61.931576"
       cy="99.527664"
       rx="0.56096298"
       ry="0.55065" /></g></svg>
